# xmcd
#
# Track frame offsets:
#	150
#	17437
#	36284
#	57479
#	75337
#	93103
#	116322
#	130482
#	150076
#	169283
#
# Disc length: 2429 seconds
#
# Revision: 1
# Processed by: cddbd v1.5.2PL0 Copyright (c) Steve Scherf et al.
# Submitted via: audiograbber 1.83.01
#
DISCID=6a097b0a
DTITLE=ROBERTO CARLOS - EL AMOR Y LA MODA
DYEAR=1900
DGENRE=
TTITLE0=EL AMOR Y LA MODA
TTITLE1=RECUERDOS Y YA MÁS NADA
TTITLE2=ESTOY AQUÍ
TTITLE3=NO TE POEDO OLVIDAR
TTITLE4=DIJISTE ADIÓS
TTITLE5=TÚ NO SABES
TTITLE6=CÓNCAVO Y CONVEXA
TTITLE7=PLENO VERANO
TTITLE8=PERDONA
TTITLE9=A PARTIR DE ESTE INSTANTE
EXTD=
EXTT0=
EXTT1=
EXTT2=
EXTT3=
EXTT4=
EXTT5=
EXTT6=
EXTT7=
EXTT8=
EXTT9=
PLAYORDER=
